<svg xmlns="http://www.w3.org/2000/svg" version="1.1" xmlns:xlink="http://www.w3.org/1999/xlink" xmlns:svgjs="http://svgjs.dev/svgjs" width="128" height="128" viewBox="0 0 128 128"><g transform="matrix(0.5049019607843137,0,0,0.5049019607843137,31.8156213100242,12.333870967741937)"><svg viewBox="0 0 97 155" data-background-color="#4b91f1" preserveAspectRatio="xMidYMid meet" height="204" width="128" xmlns="http://www.w3.org/2000/svg" xmlns:xlink="http://www.w3.org/1999/xlink"><g id="tight-bounds" transform="matrix(1,0,0,1,-0.19413793103448995,0.25)"><svg viewBox="0 0 97.38827586206898 154.5" height="154.5" width="97.38827586206898"><g><svg viewBox="0 0 97.38827586206898 154.5" height="154.5" width="97.38827586206898"><g><svg viewBox="0 0 97.38827586206898 154.5" height="154.5" width="97.38827586206898"><g id="textblocktransform"><svg viewBox="0 0 97.38827586206898 154.5" height="154.5" width="97.38827586206898" id="textblock"><g><svg viewBox="0 0 97.38827586206898 154.5" height="154.5" width="97.38827586206898"><g transform="matrix(1,0,0,1,0,0)"><svg width="97.38827586206898" viewBox="4.45 -36.25 22.85 36.25" height="154.5" data-palette-color="#77d4fc"><path d="M9.95-31.15L9.95-18.1 14.9-18.1Q16.9-18.1 18.25-18.8 19.6-19.5 20.38-20.5 21.15-21.5 21.48-22.65 21.8-23.8 21.8-24.7L21.8-24.7Q21.8-25.65 21.48-26.78 21.15-27.9 20.35-28.88 19.55-29.85 18.23-30.5 16.9-31.15 14.95-31.15L14.95-31.15 9.95-31.15ZM9.95 0L4.45 0 4.45-36.25 14.35-36.25Q17.2-36.25 19.58-35.5 21.95-34.75 23.68-33.27 25.4-31.8 26.35-29.68 27.3-27.55 27.3-24.8L27.3-24.8Q27.3-22.65 26.65-20.53 26-18.4 24.55-16.73 23.1-15.05 20.75-14 18.4-12.95 15.05-12.95L15.05-12.95 9.95-12.95 9.95 0Z" opacity="1" transform="matrix(1,0,0,1,0,0)" fill="#77d4fc" class="wordmark-text-0" data-fill-palette-color="primary" id="text-0"></path></svg></g></svg></g></svg></g></svg></g><g></g></svg></g><defs></defs></svg><rect width="97.38827586206898" height="154.5" fill="none" stroke="none" visibility="hidden"></rect></g></svg></g></svg>