<svg xmlns="http://www.w3.org/2000/svg" version="1.1" xmlns:xlink="http://www.w3.org/1999/xlink" xmlns:svgjs="http://svgjs.dev/svgjs" width="2000" height="1500" viewBox="0 0 2000 1500"><rect width="2000" height="1500" fill="#4b91f1"></rect><g transform="matrix(0.75,0,0,0.75,249.09154779283585,366.01007900388345)"><svg viewBox="0 0 396 203" data-background-color="#4b91f1" preserveAspectRatio="xMidYMid meet" height="1025" width="2000" xmlns="http://www.w3.org/2000/svg" xmlns:xlink="http://www.w3.org/1999/xlink"><g id="tight-bounds" transform="matrix(1,0,0,1,0.24008861730862918,-0.10151499354437021)"><svg viewBox="0 0 395.52 203.20320089635848" height="203.20320089635848" width="395.52"><g><svg viewBox="0 0 395.52 203.20320089635848" height="203.20320089635848" width="395.52"><g><svg viewBox="0 0 395.52 203.20320089635848" height="203.20320089635848" width="395.52"><g id="textblocktransform"><svg viewBox="0 0 395.52 203.20320089635848" height="203.20320089635848" width="395.52" id="textblock"><g><svg viewBox="0 0 395.52 203.20320089635848" height="203.20320089635848" width="395.52"><path d="M394.594 43.583C392.735 22.491 387.435 16.627 387.435 16.627 371.165-5.098 350.86-0.416 332.619 2.706 300.414 2.833 268.339 7.473 236.208 9.962 168.767 10.342 100.749 4.098 33.643 19.496 27.339 24.22-6.54 20.424 1.121 46.283 3.129 57.04 10.456 68.978 10.232 78.85 11.236 80.579 12.631 76.614 13.226 79.103 15.309 85.81 18.711 82.646 21.501 86.612 17.614 97.2 20.403 106.017 23.062 115.255 18.377 117.66 12.371 116.521 9.675 124.494 9.396 130.273 7.89 129.176 6.235 128.923 5.026 128.754 2.59 129.387 2.999 131.201 4.394 137.402-1.594 140.988 2.162 147.063-0.422 153.643 3.948 159.338 3.353 166.468 3.278 167.902 3.687 169.125 4.338 169.463 7.22 171.277 3.018 174.82 3.464 178.659 33.029 204.898 65.104 186.759 95.394 198.823 103.259 190.386 97.346 201.819 100.489 200.047 102.943 197.98 104.728 206.543 107.499 201.692 107.927 200.3 107.276 197.009 108.8 197.642 109.6 197.98 110.307 197.895 110.418 195.955 110.586 193.044 109.117 194.858 108.726 193.339 112.947 185.662 111.906 203.928 115.866 203.168 115.68 200.933 114.528 197.727 116.889 198.148 119.232 194.942 119.306 192.285 121.389 199.498 121.463 201.059 121.835 202.156 122.43 202.915 128.938 195.069 135.409 205.7 142.233 202.156 146.417 198.275 150.433 204.265 154.672 202.789 156.16 201.608 157.666 199.498 159.098 203.042 176.632 203.801 195.319 200.637 211.943 203.168 256.364 198.444 303.836 205.109 350.674 198.866 361.719 196.461 373.192 193.044 383.958 190.302 383.958 190.302 392.679 182.793 392.679 149.045S394.538 119.516 394.817 92.644C395.096 65.772 396.398 64.676 394.538 43.583Z" opacity="1" fill="#77d4fc" data-fill-palette-color="tertiary"></path><g transform="matrix(1,0,0,1,55.76832,26.230666666666668)"><svg width="283.98335999999995" viewBox="4.45 -36.25 71.39999999999999 37.9" height="150.74186756302515" data-palette-color="#4b91f1"><path d="M9.95-31.15L9.95-18.1 14.9-18.1Q16.9-18.1 18.25-18.8 19.6-19.5 20.38-20.5 21.15-21.5 21.48-22.65 21.8-23.8 21.8-24.7L21.8-24.7Q21.8-25.65 21.48-26.78 21.15-27.9 20.35-28.88 19.55-29.85 18.23-30.5 16.9-31.15 14.95-31.15L14.95-31.15 9.95-31.15ZM9.95 0L4.45 0 4.45-36.25 14.35-36.25Q17.2-36.25 19.58-35.5 21.95-34.75 23.68-33.27 25.4-31.8 26.35-29.68 27.3-27.55 27.3-24.8L27.3-24.8Q27.3-22.65 26.65-20.53 26-18.4 24.55-16.73 23.1-15.05 20.75-14 18.4-12.95 15.05-12.95L15.05-12.95 9.95-12.95 9.95 0ZM70.15-36.1L75.85-36.1Q74.05-31.35 72.02-26.13 70-20.9 68.02-15.85 66.05-10.8 64.3-6.25 62.55-1.7 61.35 1.6L61.35 1.6 53.25-18.65Q53.1-19.05 53-19.25 52.9-19.45 52.8-19.85L52.8-19.85Q52.8-19.65 52.75-19.48 52.7-19.3 52.65-19.1L52.65-19.1Q52.6-18.9 52.55-18.7L52.55-18.7Q50.85-14.8 49.2-11.05L49.2-11.05Q48.5-9.45 47.75-7.75 47-6.05 46.3-4.38 45.6-2.7 44.92-1.15 44.25 0.4 43.7 1.65L43.7 1.65Q40.1-7.8 36.45-17.2 32.8-26.6 29.2-36.1L29.2-36.1 35.35-36.1Q36.55-32.8 37.82-29.45 39.1-26.1 40.22-23 41.35-19.9 42.25-17.25 43.15-14.6 43.65-12.75L43.65-12.75 44.05-11Q44.1-11.25 44.3-11.83 44.5-12.4 44.6-12.65L44.6-12.65Q44.65-12.85 44.95-13.55 45.25-14.25 45.65-15.23 46.05-16.2 46.55-17.35 47.05-18.5 47.55-19.7L47.55-19.7Q48.75-22.45 50.2-25.8L50.2-25.8Q49.35-28.15 48.7-30.2L48.7-30.2Q48.1-31.95 47.57-33.65 47.05-35.35 46.8-36.1L46.8-36.1 52.05-36.1Q54.2-30.45 56.05-25.65L56.05-25.65Q56.8-23.6 57.57-21.55 58.35-19.5 59.02-17.75 59.7-16 60.2-14.68 60.7-13.35 60.9-12.75L60.9-12.75Q61.05-12.3 61.12-11.88 61.2-11.45 61.3-11L61.3-11Q61.4-11.45 61.47-11.9 61.55-12.35 61.65-12.75L61.65-12.75Q62.1-14.7 63.05-17.4 64-20.1 65.17-23.2 66.35-26.3 67.65-29.63 68.95-32.95 70.15-36.1L70.15-36.1Z" opacity="1" transform="matrix(1,0,0,1,0,0)" fill="#4b91f1" class="wordmark-text-0" data-fill-palette-color="quaternary" id="text-0"></path></svg></g></svg></g></svg></g></svg></g><g></g></svg></g><defs></defs></svg><rect width="395.52" height="203.20320089635848" fill="none" stroke="none" visibility="hidden"></rect></g></svg></g></svg>